<svg xmlns="http://www.w3.org/2000/svg" xmlns:xlink="http://www.w3.org/1999/xlink" width="200" zoomAndPan="magnify" viewBox="0 0 150 149.999998" height="200" preserveAspectRatio="xMidYMid meet" version="1.0"><path fill="#f4f4f4" d="M 150 75 C 150 116.421875 116.421875 150 75 150 C 33.578125 150 0 116.421875 0 75 C 0 33.578125 33.578125 0 75 0 C 116.421875 0 150 33.578125 150 75 " fill-opacity="1" fill-rule="nonzero"/><path fill="#dddddd" d="M 149.136719 86.410156 L 93.230469 30.503906 C 88.703125 25.585938 82.210938 22.5 75 22.5 C 61.320312 22.5 50.234375 33.585938 50.234375 47.261719 L 50.234375 47.265625 C 50.238281 50.460938 50.847656 53.511719 51.953125 56.320312 C 57.550781 76.378906 74.304688 101.9375 75 127.5 L 94.847656 147.34375 C 123.066406 139.621094 144.648438 115.828125 149.136719 86.410156 " fill-opacity="1" fill-rule="nonzero"/><path fill="#ffffff" d="M 75 31.46875 C 83.34375 31.46875 90.109375 38.230469 90.109375 46.574219 C 90.109375 54.917969 83.34375 61.683594 75 61.683594 C 66.65625 61.683594 59.890625 54.917969 59.890625 46.574219 C 59.890625 38.230469 66.65625 31.46875 75 31.46875 " fill-opacity="1" fill-rule="nonzero"/><path fill="#737373" d="M 90.109375 46.574219 C 90.109375 38.230469 83.34375 31.46875 75 31.46875 C 66.65625 31.46875 59.890625 38.230469 59.890625 46.574219 C 59.890625 54.917969 66.65625 61.683594 75 61.683594 C 83.34375 61.683594 90.109375 54.917969 90.109375 46.574219 Z M 99.765625 47.261719 L 99.765625 47.265625 C 99.765625 50.460938 99.152344 53.511719 98.046875 56.320312 C 92.445312 76.378906 75.695312 101.9375 75 127.5 C 74.304688 101.9375 57.550781 76.378906 51.953125 56.320312 C 50.847656 53.511719 50.238281 50.460938 50.234375 47.265625 L 50.234375 47.261719 C 50.234375 33.585938 61.320312 22.5 75 22.5 C 88.675781 22.5 99.765625 33.585938 99.765625 47.261719 " fill-opacity="1" fill-rule="nonzero"/></svg>